<svg id="visual" viewBox="0 0 960 540" width="960" height="540" xmlns="http://www.w3.org/2000/svg" xmlns:xlink="http://www.w3.org/1999/xlink" version="1.1"><rect x="0" y="0" width="960" height="540" fill="#002233"></rect><path d="M0 198L22.8 192.8C45.7 187.7 91.3 177.3 137 155.5C182.7 133.7 228.3 100.3 274 92.8C319.7 85.3 365.3 103.7 411.2 122.3C457 141 503 160 548.8 162.2C594.7 164.3 640.3 149.7 686 150.7C731.7 151.7 777.3 168.3 823 171.5C868.7 174.7 914.3 164.3 937.2 159.2L960 154L960 0L937.2 0C914.3 0 868.7 0 823 0C777.3 0 731.7 0 686 0C640.3 0 594.7 0 548.8 0C503 0 457 0 411.2 0C365.3 0 319.7 0 274 0C228.3 0 182.7 0 137 0C91.3 0 45.7 0 22.8 0L0 0Z" fill="#0066FF" stroke-linecap="round" stroke-linejoin="miter"></path></svg>